<?xml version="1.0" encoding="UTF-8"?>
<svg id="Layer_1" data-name="Layer 1" xmlns="http://www.w3.org/2000/svg" viewBox="0 0 399.61 552.99">
  <path d="M191.01,337.6c-8.51.69-16.64,1.95-24.82,2.53-.11-.25-.22-.5-.32-.75.56-.72,1.09-1.46,1.68-2.16,9.75-11.68,20.14-22.76,31.02-33.37,17.17-16.75,34.39-33.45,51.59-50.18,1.25-1.22,2.45-2.49,3.85-3.92-2.44-3.09-4.79-6.07-7.34-9.29-.21.61-.39.88-.39,1.16-.02,3.32-1.63,5.8-4.14,7.75-1.76,1.38-3.68,2.56-5.46,3.9-15.71,11.84-32.87,21.26-50.4,30.04-12,6.01-24,12.04-36.01,18.04-1.35.68-2.76,1.25-4.17,1.82-1.63.67-3.05.21-4.05-1.15-1.23-1.67-2.35-3.42-3.42-5.2-5.09-8.5-11.83-15.24-20.72-19.75-4.89-2.48-10.1-4.03-15.44-5.06-6.74-1.3-13.52-2.44-20.3-3.51-4.59-.72-8.92-2.13-12.56-5-3.38-2.66-6.44-5.73-9.62-8.63-.71-.65-.66-.69-.6-2.37.8.33,1.51.61,2.21.91,6.84,2.92,13.64,2.92,20.46-.14,4.38-1.97,8.39-4.51,12.75-7.63-1.62-.16-2.69-.2-3.74-.38-2.22-.38-2.95-1.14-2.85-3.37.1-2.31.52-4.6.71-6.91.27-3.33.47-6.67.72-10.45-9.49,3.35-18.63,6.57-27.91,9.84,0-.46-.05-.69,0-.9.87-3.34.76-3.57-2.48-5.05-1.01-.47-2.05-.91-3-1.49-.8-.49-1.35-1.39-.92-2.24.3-.59,1.19-1.21,1.83-1.22,3.95-.1,7.23-1.83,10.4-3.92,2.12-1.4,4.27-2.77,6.73-4.36-.82-.18-1.29-.35-1.78-.38-5.63-.39-11,.45-15.9,3.46-.43.26-.98.33-1.43.48-.85-1-.23-1.85-.08-2.65.25-1.35.12-2.45-.99-3.44-1.8-1.61-3.13-3.56-4.22-5.75-.73-1.47-1.96-2.71-3.06-3.97-1.74-1.99-3.58-3.88-5.33-5.86-.73-.82-1.33-1.76-2.23-2.95,3.68-.12,6.07-2.16,8.61-3.94,2.35-1.65,4.71-3.33,7.22-4.71,2.01-1.09,4.26-1.74,6.56-2.65-1.66-.55-3.22-.43-4.7.32-2.36,1.18-4.63,2.53-7.01,3.67-1.72.82-3.52,1.52-5.33,2.1-1.5.48-2.11-.19-1.66-1.68.84-2.84,1.82-5.62,3.58-8.07,3.65-5.06,7.11-10.26,10.91-15.19,4.24-5.51,5.84-11.62,5.05-18.44-.2-1.75-.47-3.48-.69-5.23-.3-2.37-.16-2.55,2.04-3.28.63-.21,1.23-.51,2.36-.99-1.71-.77-2.81-.11-3.9-.13-1.01-.02-2.32,1.14-3.12-.61,1.18-.87,2.31-1.71,3.76-2.79-4.32-.75-7.46-2.69-9.4-6.71,1.49-.47,2.76-.88,4.03-1.26,6.45-1.9,12.82-3.92,18.68-7.37,3.91-2.3,7.85-2.03,11.8.34,3.14,1.89,6.48,3.44,9.61,5.08,1.18-.59,1.03-1.13.36-1.74-1.89-1.73-3.78-3.45-5.64-5.21-.69-.66-1.36-1.36-1.94-2.12-1.52-2-1.47-2.74.14-4.62.46-.54.93-1.07,1.55-1.79-.6-.21-1.01-.33-1.41-.5-1.87-.79-2.58-1.86-2.46-3.92.06-.95.26-1.9.52-2.82,2.07-7.22,4.09-14.45,6.31-21.62.55-1.78,1.56-3.52,2.73-4.98,1.77-2.19,4.43-2.88,7.13-2.82,6.34.14,12.61-.54,18.89-1.14.73-.07,1.72.18,1.62-1.42-8.53.26-17.04.23-25.52-.86-8.4-1.08-16.71-2.62-25.45-4.56,1.66-1.55,3.06-2.87,4.57-4.29-5.45-1.15-11.15,1.41-13.84,6.22-1.75,3.14-3.34,6.37-4.84,9.64-2.3,5.01-4.47,10.08-6.7,15.12-.15.35-.36.68-.72,1.35-.61-1.54-1.23-2.73-1.54-4-1.63-6.59-3.46-13.14-4.69-19.81-1.52-8.26-1.51-16.59,1.32-24.64,4.22-11.97,12.5-20.03,24.28-24.6,5.11-1.99,10.46-2.87,15.84-3.64,13.86-2,27.5-5.01,40.99-8.73,10.52-2.9,21.21-4.54,32.13-4.98,7.7-.31,15.33-.1,22.88,1.52,8.32,1.79,15.96,5.16,22.84,10.14,2.13,1.54,4.24,2.22,6.9,1.94,7.79-.81,14.48,1.84,20.19,7.04,4.69,4.27,8.67,9.18,12.39,14.3,11.53,15.89,18.81,33.55,21.53,52.99,3.09,22.12-.31,43.29-9.8,63.51-4.21,8.97-8.38,17.96-12.33,27.04-3.74,8.61-5.49,17.68-5.02,27.1.27,5.46,1.25,10.79,3.15,15.92.76,2.05,1.83,3.9,3.47,5.39,2.02,1.84,4.53,2.5,7.11,2.38,6.09-.28,9.87,2.88,12.65,7.85,3.67,6.56,7.33,13.12,11.13,19.6,2.06,3.51,4.26,6.97,6.65,10.26,4.67,6.43,10.57,11.49,17.52,15.39,11.43,6.42,22.8,12.95,34.18,19.46.96.55,1.87,1.22,2.73,1.93,12.73,10.45,25.47,20.9,38.16,31.4.89.73,1.68,1.73,2.17,2.77,4.55,9.78,9.02,19.6,13.49,29.42.35.78.6,1.67.64,2.51.21,5.43.35,10.86.51,16.3.35,11.82.68,23.65,1.03,35.47.3,10.07.6,20.13.93,30.2.39,11.9.83,23.8,1.21,35.7.26,8.23.44,16.46.67,24.69.34,11.82.69,23.65,1.04,35.47.05,1.58.16,3.16.27,5.13-1.17-.25-2.06-.42-2.95-.63-27.06-6.57-53.52-15.06-79.54-24.92-22.72-8.6-45.3-17.55-67.95-26.33-25.12-9.73-50.48-18.75-76.44-26-21.33-5.96-42.91-10.77-64.79-14.27-14.05-2.25-28.14-4.13-42.32-5.26-9-.72-18-1.49-27.02-1.87-12.22-.52-24.45-.69-36.67-1.01-.54-.01-1.09-.08-1.77-.13-.06-.81-.14-1.5-.14-2.2,0-13.68-.05-27.35.03-41.03.09-14.31.24-28.62.48-42.93.24-14.47.55-28.93.97-43.4.38-13.18.89-26.36,1.44-39.54.39-9.5.89-19,1.43-28.5.76-13.48,1.59-26.96,2.4-40.45.26-4.31.51-8.62.87-12.91.09-1.07.38-2.23.92-3.15,10.21-17.55,20.46-35.08,30.72-52.6.27-.45.61-.86,1.14-1.61.9,3.78,1.71,7.21,2.64,11.12-.4.66-1.11,1.81-1.8,2.96-3.59,6.04-6.22,12.41-6.97,19.48-.43,4.04,0,8,.94,11.88.37,1.52,1.62,2.82,2.64,4.52-.14.37-.4,1.11-.7,1.84-6.9,16.43-13.8,32.86-20.73,49.27-.55,1.31-1.28,2.57-2.07,3.76-2.18,3.26-4.3,6.57-5.44,10.36-.46,1.52-.78,3.1-.91,4.68-.36,4.24,1.34,7.62,4.63,10.25,2.47,1.98,5.32,3.22,8.31,4.18,5.21,1.67,10.59,2.42,16.01,2.85,12.4.98,24.77.32,37.13-.73,6.21-.53,12.42-1.08,18.63-1.65,3.18-.3,6.23.19,9.16,1.37,2.44.99,4.87,2.02,7.24,3.16,3.97,1.92,4.53,4.86,1.62,8.28-4.83,5.69-10.2,10.79-16.05,15.44-4.44,3.53-8.84,7.15-12.88,11.11-8.08,7.92-13.87,17.29-16.66,28.39-.27,1.06-.89,2.04-1.45,3-.56.97-1.22,1.88-1.86,2.79-1.22,1.73-1.51,3.5-.95,5.64,1.28,4.83,1.41,9.83,1.22,14.77-.14,3.67,1.64,6.01,4.11,8.2.7.62,1.38.79,2.15.25,1.43-1.01,2.95-1.93,4.23-3.11,12.03-11.02,24.02-22.08,36.03-33.12.87-.8,1.81-1.52,2.95-2.2-1.33,3.75-1.67,7.33.77,10.84,4.59-4.66,8.34-9.74,10.87-15.57,2.28-5.27,4.11-10.73,6.16-16.1,1.54-4.03,3.05-8.07,4.68-12.06.89-2.17,1.86-2.63,3.93-1.89,3.74,1.33,7.22,1.21,10.6-1.74.91,1.48,1.9,2.73,2.5,4.15,2.79,6.54,5.49,13.12,8.18,19.7,1.33,3.26.68,5.14-2.45,7.36-6.06,4.31-12.13,8.61-18.18,12.93-4.51,3.22-7.4,7.45-8.1,13.04-.18,1.43-.31,2.87-.59,4.27-.18.91-.58,1.79-.92,2.66-.14.37-.45.67-.58,1.04-2.21,6.41-4.97,12.68-5.51,19.55-.32,4.02.11,7.98,2.33,11.54.27.43.27,1.04.37,1.58.85,4.95,1.67,9.91,2.58,14.86.12.66.58,1.32,1.05,1.84.83.92,1.64.99,2.47.09.91-.99,1.65-2.14,2.39-3.28,1.31-2,2.45-4.11,3.84-6.06,15.51-21.74,31.06-43.45,46.61-65.17,1.72-2.41,3.51-4.76,5.26-7.15.36-.49.65-1.03,1.15-1.83ZM113.39,217.22c.45-.39.76-.63,1.04-.91,4.65-4.72,6.74-10.27,5.98-16.98-.72-6.34-1.03-12.73-1.54-19.1-.11-1.38-.3-2.76-.5-4.5-1.15.96-1.94,1.73-2.85,2.35-1.71,1.17-3.37,2.49-5.24,3.31-3.91,1.72-7.95,1.69-11.85-.11-3.59-1.65-4.78-4.99-3.16-8.58.46-1.01,1.06-1.99,1.76-2.84,3.2-3.88,6.32-7.85,9.73-11.55,6.95-7.55,15.12-13.25,25.31-15.62.6-.14,1.13-.59,1.7-.9-.06-.16-.12-.33-.18-.49-.85,0-1.69-.04-2.54,0-2.63.13-5.26.3-7.89.44-6.06.33-12.12.63-18.18.97-2.84.16-5.31,1.2-7.07,3.51-1.31,1.72-3,2.91-4.96,3.63-3.82,1.39-7.66,2.73-11.56,3.89-2.51.74-4.88,1.44-5.36,4.84-1.09-1.41-1.89-2.47-2.76-3.6-7.75,3.35-14.19,8.01-18.7,15.13.87.04,1.63-.12,2.39-.28,2.02-.45,4.04-.96,6.07-1.34,3.48-.66,6.51.29,8.92,2.9,1.24,1.35,2.35,2.82,3.41,4.32,2.97,4.16,5.81,8.42,8.84,12.54,8.22,11.16,14.9,23.07,18.3,36.63.18.73.49,1.44.77,2.21.41-.21.64-.29.82-.44,3.62-2.93,4.86-6.74,3.51-11.13-1.03-3.34-2.54-6.54-3.85-9.8-.37-.91-.77-1.82-1.15-2.72.15-.08.3-.15.45-.23,3.43,4.78,6.86,9.57,10.36,14.44ZM161.34,158.88c-.18,0-.37.02-.55.03-.46,1.52-.86,3.06-1.4,4.55-.46,1.26-1.19,1.37-2.07.36-1.11-1.27-2.09-2.6-2.28-4.38-.55-5.17-.9-10.35-.56-15.56.78-12.02-2.59-22.66-10.14-32.11-4.84-6.05-9.33-12.38-13.88-18.66-3.4-4.69-4.58-9.94-3.44-15.68.19-.96.59-1.97,0-3.34-.7.96-1.29,1.67-1.78,2.45-3.91,6.24-5.34,13.07-5,20.38.22,4.65,2.37,8.04,6.26,10.4,1.71,1.03,3.5,1.93,5.27,2.85,6.17,3.19,10.63,7.88,12.66,14.62,1.22,4.05,2.44,8.11,3.37,12.23,1.73,7.63,3.2,15.32,4.88,22.96,1.52,6.92,2.34,13.85.93,20.9-.13.64-.02,1.33-.02,2.29,3.77-1.28,7.15-2.42,10.76-3.65-1.02-6.98-2.02-13.81-3.02-20.65ZM52,79.31l.61-.02c.04-.45.1-.89.13-1.34.47-6.29.8-12.59,1.46-18.86.58-5.42,2-10.68,4.53-15.56,2.63-5.07,6.74-8.19,12.4-9.25,4.69-.87,9.4-.57,14.1-.22,7.04.54,14.07.49,20.98-1.04,5.37-1.19,10.66-2.77,16.01-4.1,13.28-3.29,26.73-4.69,40.39-3.3.78.08,1.57.01,2.35.01-.85-.65-1.74-.99-2.65-1.19-13.98-3.15-28.01-3.55-42.05-.44-7.19,1.59-14.42,2.76-21.78,3.13-6.42.32-12.76-.4-19.11-1.15-4.82-.57-9.55-.24-14.04,1.94-7.61,3.69-12.3,9.74-14.51,17.8-2.18,7.93-2.02,15.96-.73,24,.52,3.21,1.27,6.39,1.91,9.58ZM158.1,59.76c.05.16.1.32.15.48.38-.08.76-.15,1.14-.23,6.3-1.44,12.57-2.97,18.89-4.29,10.17-2.13,20.46-3.44,30.86-3.46,4.06,0,8.12.46,12.18.7.4.02.8.07,1.19.07.31,0,.61-.05.92-.08-22.83-7.04-44.42-3.19-65.33,6.81ZM84.81,195.62c.08-.17.16-.34.24-.52-3.73-5.26-7.28-10.65-11.39-16.09-.25,1.17-.4,1.86-.55,2.55-.8,3.78-2.86,6.49-6.57,7.87-2.01.75-3.99,1.61-5.98,2.43-.7.29-1.39.62-2.08.94.02.13.04.27.07.4,8.75.8,17.51,1.61,26.26,2.41ZM200.76,114.33c-.32-.37-.37-.44-.43-.48-.13-.08-.27-.18-.42-.21-7.09-1.74-13.44-.4-18.91,4.56-3.93,3.57-6.53,8.02-8.35,12.94-.54,1.45-.94,2.95-1.41,4.43.13.09.27.18.4.27,6.75-11.13,16.2-18.6,29.11-21.52ZM123.52,245.05c0-.17,0-.35,0-.52-3.63-1.96-7.49-2.35-11.52-1.5-4.46.94-8.14,3.16-10.97,6.77-.56.72-1.1,1.43.01,2.34,7.45-2.35,14.95-4.72,22.46-7.09ZM82.66,139.65c-2.38-2.66-5.25-3.98-8.64-4.05-1.42-.03-2.7,1.46-2.65,2.85.07,1.97.7,3.8,2.15,5.16.55.52,1.64.98,2.29.79,2.71-.79,5.04-2.26,6.85-4.75ZM74.35,147.7c.54,1.23.92,2.28,1.45,3.26.82,1.51,1.72,2,3.36,1.48,1.41-.45,2.83-1.13,4-2.03,2.21-1.69,2.53-4.17,1.05-6.97-3.25,1.41-6.51,2.82-9.85,4.27ZM189.74,188.85c3.27-.46,12.87-10.26,14.37-14.41-.14.03-.32.02-.42.1-4,3.3-7.99,6.6-11.98,9.91-1.31,1.09-1.75,2.57-1.97,4.41ZM88.71,136.65c.04-.18.08-.37.12-.55-5.06-3.19-10.26-5.8-16.5-4.25-.05.18-.09.37-.14.55,5.51,1.42,11.02,2.83,16.53,4.25Z" style="fill: #000; stroke-width: 0px;"/>
  <path d="M51.9,112.38c-.25,2.37-.5,4.74-.75,7.1-.33,3.09-.67,6.19-.99,9.28-.29,2.82.4,5.33,2.17,7.62,3.06,3.96,2.94,5.73-.51,9.36-1.5,1.58-3.14,3.02-4.91,4.42.82-1.32,1.65-2.64,2.47-3.96,2.8-4.54,2.55-5.8-1.8-8.82-.71-.5-1.44-.97-2.11-1.42,0-.27-.06-.47,0-.57,2.86-4.03,2.85-8.88,3.84-13.44.61-2.81,1.04-5.65,1.57-8.47.08-.43.29-.83.43-1.25.19.05.38.11.58.16Z" style="fill: #000; stroke-width: 0px;"/>
</svg>