<?xml version="1.0" encoding="UTF-8"?>
<svg id="Layer_1" data-name="Layer 1" xmlns="http://www.w3.org/2000/svg" viewBox="0 0 618.08 100">
  <g>
    <path d="M98.84,98.84c-32.95,0-38.7-15.25-71.64-15.25,0-32.95,1.64-26.8,1.64-59.75C61.79,23.84,65.89,0,98.84,0v98.84ZM32.89,44.76c.29-.43.59-.86.85-1.31.09-.15.17-.42.1-.52-.39-.51-.98-.7-1.57-1-.02.16-.04.22-.03.28.17.81.34,1.62.52,2.43,0,.04.09.07.14.1-.58.86-1.04,1.78-1.2,2.81-.08.54-.04,1.13.07,1.67.13.66.69.82,1.25.44.73-.49,1.39-1.13,2.34-1.22-.23-.05-.47-.08-.66,0-.41.18-.79.43-1.2.62-.2.1-.42.14-.63.21-.05-.05-.1-.09-.15-.14.13-.34.21-.72.41-1.03.5-.77,1.03-1.52,1.59-2.24.73-.93.71-1.96.5-3.02-.05-.27.01-.35.24-.4.1-.02.19-.06.29-.1,0-.03-.01-.07-.02-.1-.26.04-.52.09-.79.13-.03-.05-.06-.11-.08-.16.2-.14.4-.28.56-.39-.48.07-1.12-.37-1.28-.86.63-.2,1.27-.38,1.9-.6.36-.13.7-.33,1.04-.51.54-.29,1.05-.31,1.59.04.4.26.86.44,1.3.66.03-.04.05-.08.08-.13-.31-.28-.63-.55-.91-.84-.14-.15-.33-.37-.32-.54.01-.18.24-.34.38-.52-.55-.04-.59-.43-.48-.86.26-.96.55-1.91.83-2.87.22-.74.65-1.08,1.47-1.05.84.03,1.68-.11,2.52-.17,0-.05,0-.1,0-.16-2.25.17-4.43-.2-6.69-.7.25-.22.44-.39.67-.6-.82-.04-1.47.21-1.83.87-.47.84-.83,1.73-1.24,2.6-.11.24-.2.48-.35.85-.12-.3-.2-.46-.24-.62-.22-.89-.5-1.77-.62-2.67-.26-1.82-.01-3.53,1.31-4.95,1-1.08,2.31-1.58,3.71-1.77,1.98-.28,3.92-.69,5.84-1.23,1.76-.49,3.56-.68,5.39-.63,1.79.05,3.41.58,4.85,1.64.13.1.32.19.47.16,1.3-.2,2.34.28,3.2,1.19,4.04,4.24,5.66,10.85,2.81,16.82-.59,1.23-1.2,2.46-1.69,3.73-.62,1.61-.76,3.28-.27,4.97.23.8.59,1.41,1.57,1.38.75-.03,1.23.39,1.59,1.05.63,1.16,1.27,2.31,1.99,3.41.66,1.02,1.51,1.86,2.6,2.46,1.55.85,3.07,1.75,4.61,2.62.28.16.7-.22.58-.53-.84-2.33-1.71-4.66-3.16-6.69-.87-1.21-1.85-2.34-2.81-3.49-1.18-1.42-1.44-3-.89-4.75.91-2.87,1.17-5.82,1.02-8.81-.09-1.71-.41-3.38-1.05-4.98-1.01-2.51-2.54-4.68-4.36-6.66-1.11-1.2-2.29-2.34-3.87-2.88-1.76-.61-3.54-1.2-5.35-1.61-2.62-.59-5.27-.48-7.88.21-1.74.46-3.49.87-5.22,1.34-1.07.29-2.23.46-3.14,1.02-2.29,1.41-3.7,3.5-3.65,6.28.04,1.92.32,3.84.5,5.76.09.98.51,1.94.28,2.96-.02.1.13.3.24.35.3.12.63.17.88.24.17-.9.32-1.75.48-2.59.04,0,.09.01.13.02-.08.65-.16,1.3-.23,1.95-.04.42-.07.8.25,1.19.46.56.38.83-.11,1.34-.35.36-.68.73-1.02,1.09ZM29.23,56.85c-4.83,6.48,9.36,4.02,10.44,4.11.63.05,1.25.36,1.83.64.41.2.49.62.18.98-.43.5-.88.98-1.36,1.42-.56.5-1.19.93-1.76,1.43-1.37,1.2-2.44,2.6-2.88,4.41-.06.25-.29.45-.41.69-.09.16-.23.37-.19.51.23.82.21,1.65.22,2.48,0,.29.36.61.62.84.06.05.44-.17.61-.33,1.66-1.52,3.31-3.05,4.97-4.57.09-.09.2-.15.31-.22-.27.52-.3.99.03,1.51.13-.15.22-.26.31-.36,1.01-1.13,1.52-2.51,1.96-3.94.15-.5.38-.98.58-1.47.09-.22.25-.31.5-.21.48.19.94.17,1.37-.22.12.17.24.31.31.46.36.86.68,1.74,1.07,2.58.21.46.11.73-.29,1-.8.54-1.57,1.12-2.36,1.68-.57.41-.97.94-1.06,1.65-.23,1.69-.51,3.37-.64,5.07-.06.74.19,1.51.33,2.27.02.13.2.31.3.31.11,0,.25-.17.34-.29.15-.22.25-.49.41-.71,2.1-2.94,4.21-5.88,6.31-8.82.28-.39.56-.76.87-1.17-1.12.12-2.19.24-3.25.36-.03-.04-.05-.08-.08-.12,3.48-4.25,7.72-7.78,11.48-11.67-.36-.45-.67-.85-1.01-1.28.09.64-.25,1.05-.69,1.36-1.34.92-2.64,1.91-4.06,2.68-2.49,1.37-5.06,2.59-7.6,3.88-1.03.52-1.05.54-1.65-.47-.96-1.63-2.34-2.69-4.15-3.14-1.06-.26-2.14-.47-3.22-.6-1.31-.16-2.16-.98-2.99-1.87-.02-.03,0-.09-.02-.23.81.4,1.6.56,2.45.32.82-.24,1.51-.69,2.27-1.23-.93.03-1.01-.07-.89-.91.03-.21.07-.41.08-.62.03-.39.04-.78.07-1.19-1.29.46-2.5.89-3.68,1.3q.21-.59-.45-.87c-.1-.04-.21-.09-.28-.17-.05-.06-.09-.19-.06-.26.03-.07.14-.14.22-.14.93.02,1.49-.68,2.35-1.1-1.01-.13-1.81,0-2.54.51-.04-.02-.08-.04-.12-.07.04-.21.08-.43.1-.56-.24-.29-.55-.52-.65-.81-.17-.51-1.44-1.48-1.54-2.03M42.63,47.51c-.08.07-.24.2-.4.34-.53.46-1.14.65-1.83.52-.87-.17-1.15-.85-.64-1.55.28-.38.58-.73.88-1.09,1.04-1.23,2.24-2.22,3.86-2.56.03,0,.06-.05.19-.16-1.29.07-2.46.13-3.63.19-.46.02-.84.11-1.15.54-.2.27-.6.41-.93.56-.35.15-.73.25-1.1.35-.36.1-.74.14-.75.71-.16-.23-.26-.37-.38-.54-1,.44-1.84,1.03-2.49,2,.19-.05.31-.08.43-.11,1.31-.37,1.7-.2,2.44.95.56.86,1.22,1.66,1.77,2.53.42.65.79,1.35,1.11,2.06.27.62.43,1.29.65,1.97.62-.46.72-1.02.52-1.63-.18-.55-.45-1.07-.67-1.61.02-.02.04-.03.06-.05.47.65.94,1.31,1.42,1.98.65-.65,1.01-1.32.89-2.24-.13-1.04-.17-2.1-.25-3.15ZM47.96,46.02c-.06.02-.12.05-.18.07-.13-.2-.34-.38-.37-.59-.08-.68-.15-1.38-.1-2.06.12-1.55-.26-2.92-1.23-4.14-.66-.83-1.29-1.68-1.9-2.55-.47-.66-.61-1.41-.41-2.21.02-.08.01-.17.02-.3-.48.55-.82,1.42-.9,2.25-.12,1.3.14,1.81,1.32,2.38.83.39,1.44.95,1.76,1.81.18.5.34,1,.45,1.52.22.97.35,1.96.6,2.92.27,1.04.4,2.08.19,3.14-.01.06.02.14.02.19.52-.18,1-.34,1.36-.46-.14-.94-.27-1.85-.41-2.79-.08.29-.16.55-.24.82ZM49,28.01c-.22-.07-.44-.16-.66-.21-1.83-.41-3.67-.45-5.5-.04-1.65.37-3.29.54-4.97.28-.36-.06-.74-.06-1.11-.04-.27.01-.55.06-.79.16-1.21.49-1.91,1.42-2.19,2.68-.32,1.44-.09,2.84.27,4.24.04-.21.02-.42.04-.62.08-.93.08-1.87.28-2.77.51-2.24,1.43-2.86,3.72-2.67,1.26.11,2.5.07,3.72-.3,2.35-.7,4.73-1.08,7.2-.71ZM56.59,31.55c-3.13-1.01-6.1-.47-8.98.95,2.95-.75,5.91-1.41,8.98-.95ZM36.8,47.93c-.07.59-.25,1.06-.75,1.29-.46.22-.93.39-1.31.54,1.13.1,2.31.21,3.57.33-.52-.75-.99-1.41-1.51-2.16ZM44.39,72.71c-.06-.02-.11-.04-.17-.06-.1.15-.25.29-.3.46-.36,1.14-.92,2.24-.59,3.49.04.17.13.32.19.49.11-.14.23-.27.32-.42.06-.11.08-.24.1-.37.13-.92.26-1.84.38-2.76.04-.28.04-.55.06-.83ZM53.42,39.48c-2.13-.69-3.5,1.1-3.92,2.9.92-1.55,2.19-2.53,3.92-2.9ZM40.28,57.3c.02.05.03.1.05.15,1-.32,2-.63,3.01-.95-.99-.58-2.41-.21-3.06.8ZM36.5,42.54c.02.53.33.97.59.88.31-.12.64-.32.84-.57.11-.13-.67-.6-1.11-.57-.14.01-.26.21-.33.26ZM36.9,43.86c.18.32.19.81.78.55.54-.24.72-.59.52-1.11-.42.18-.84.36-1.31.56ZM51.9,49.19s.1.05.15.07c.79-.62,1.49-1.31,1.91-2.09-.56.46-1.21.98-1.83,1.52-.13.11-.15.33-.23.51ZM36.52,41.82c.8.2,1.59.41,2.39.61-.73-.47-1.47-.88-2.39-.61Z" style="fill: #000; stroke-width: 0px;"/>
    <path d="M33.38,41.76c.17-.9.32-1.75.48-2.59.04,0,.09.01.13.02-.08.65-.16,1.3-.23,1.95-.04.42-.07.8.25,1.19.46.56.38.83-.11,1.34-.35.36-.68.73-1.02,1.09,0,0,.02-.01.02-.01-.58.86-1.04,1.78-1.2,2.81-.08.54-.04,1.13.07,1.67.13.66.69.82,1.25.44.73-.49,1.39-1.13,2.34-1.22-.23-.05-.47-.08-.66,0-.41.18-.79.43-1.2.62-.2.1-.42.14-.63.21-.05-.05-.1-.09-.15-.14.13-.34.21-.72.41-1.03.5-.77,1.03-1.52,1.59-2.24.73-.93.71-1.96.5-3.02-.05-.27.01-.35.24-.4.1-.02.19-.06.29-.1,0-.03-.01-.07-.02-.1-.26.04-.52.09-.79.13-.03-.05-.06-.11-.08-.16.2-.14.4-.28.56-.39-.48.07-1.12-.37-1.28-.86.63-.2,1.27-.38,1.9-.6.36-.13.7-.33,1.04-.51.54-.29,1.05-.31,1.59.04.4.26.86.44,1.3.66.03-.04.05-.08.08-.13-.31-.28-.63-.55-.91-.84-.14-.15-.33-.37-.32-.54.01-.18.24-.34.38-.52-.55-.04-.59-.43-.48-.86.26-.96.55-1.91.83-2.87.22-.74.65-1.08,1.47-1.05.84.03,1.68-.11,2.52-.17,0-.05,0-.1,0-.16-2.25.17-4.43-.2-6.69-.7.25-.22.44-.39.67-.6-.82-.04-1.47.21-1.83.87-.47.84-.83,1.73-1.24,2.6-.11.24-.2.48-.35.85-.12-.3-.2-.46-.24-.62-.22-.89-.5-1.77-.62-2.67-.26-1.82-.01-3.53,1.31-4.95,1-1.08,2.31-1.58,3.71-1.77,1.98-.28,3.92-.69,5.84-1.23,1.76-.49,3.56-.68,5.39-.63,1.79.05,3.41.58,4.85,1.64.13.1.32.19.47.16,1.3-.2,2.34.28,3.2,1.19,4.04,4.24,5.66,10.85,2.81,16.82-.59,1.23-1.2,2.46-1.69,3.73-.62,1.61-.76,3.28-.27,4.97.23.8.59,1.41,1.57,1.38.75-.03,1.23.39,1.59,1.05.63,1.16,1.27,2.31,1.99,3.41.66,1.02,1.51,1.86,2.6,2.46,1.55.85,3.07,1.75,4.61,2.62l5.36,4.41,1.93,4.22.77,25.32,2.41,2.03,18.63-.48L98.84,0H0v98.84" style="fill: #fff; stroke-width: 0px;"/>
    <path d="M42.63,47.51c.08,1.05.12,2.11.25,3.15.12.91-.24,1.59-.89,2.24-.48-.67-.95-1.33-1.42-1.98-.02.02-.04.03-.06.05.23.54.49,1.06.67,1.61.2.61.1,1.17-.52,1.63-.22-.68-.37-1.35-.65-1.97-.31-.71-.69-1.41-1.11-2.06-.55-.86-1.21-1.66-1.77-2.53-.74-1.14-1.13-1.32-2.44-.95-.12.03-.24.06-.43.11.65-.97,1.49-1.56,2.49-2,.12.17.22.31.38.54,0-.57.39-.62.75-.71.37-.1.75-.19,1.1-.35.33-.14.74-.29.93-.56.31-.43.69-.52,1.15-.54,1.17-.05,2.34-.12,3.63-.19-.13.11-.16.15-.19.16-1.62.35-2.83,1.33-3.86,2.56-.3.36-.61.71-.88,1.09-.52.7-.23,1.39.64,1.55.69.13,1.3-.06,1.83-.52.15-.13.31-.26.4-.34Z" style="fill: #fff; stroke-width: 0px;"/>
    <path d="M47.96,46.02c.08-.27.15-.53.24-.82.14.95.27,1.85.41,2.79-.37.12-.85.29-1.36.46,0-.06-.04-.13-.02-.19.21-1.07.08-2.1-.19-3.14-.25-.96-.39-1.95-.6-2.92-.12-.51-.27-1.02-.45-1.52-.32-.86-.93-1.42-1.76-1.81-1.18-.56-1.43-1.08-1.32-2.38.07-.83.41-1.7.9-2.25,0,.13,0,.22-.02.3-.19.8-.05,1.54.41,2.21.61.87,1.24,1.72,1.9,2.55.97,1.22,1.35,2.59,1.23,4.14-.05.68.02,1.38.1,2.06.02.21.24.39.37.59.06-.02.12-.05.18-.07Z" style="fill: #fff; stroke-width: 0px;"/>
    <path d="M49,28.01c-2.47-.37-4.85,0-7.2.71-1.23.37-2.46.41-3.72.3-2.29-.2-3.21.43-3.72,2.67-.2.9-.2,1.85-.28,2.77-.02.2,0,.41-.04.62-.36-1.39-.58-2.8-.27-4.24.28-1.26.97-2.19,2.19-2.68.25-.1.53-.15.79-.16.37-.02.74-.01,1.11.04,1.68.27,3.32.09,4.97-.28,1.83-.41,3.67-.37,5.5.04.22.05.44.14.66.21Z" style="fill: #fff; stroke-width: 0px;"/>
    <path d="M56.59,31.55c-3.07-.46-6.03.2-8.98.95,2.88-1.42,5.85-1.96,8.98-.95Z" style="fill: #fff; stroke-width: 0px;"/>
    <path d="M36.8,47.93c.52.75.99,1.41,1.51,2.16-1.26-.11-2.44-.22-3.57-.33.38-.15.86-.32,1.31-.54.49-.24.67-.7.75-1.29Z" style="fill: #fff; stroke-width: 0px;"/>
    <path d="M44.39,72.71c-.02.28-.03.56-.06.83-.12.92-.25,1.84-.38,2.76-.02.13-.04.26-.1.37-.09.15-.21.28-.32.42-.07-.16-.15-.32-.19-.49-.33-1.25.23-2.36.59-3.49.05-.17.2-.31.3-.46.06.02.11.04.17.06Z" style="fill: #fff; stroke-width: 0px;"/>
    <path d="M32.89,44.76s.02-.01.02-.01c-.05-.03-.13-.06-.14-.1-.18-.81-.35-1.62-.52-2.43-.01-.06.01-.12.03-.28.59.29,1.18.49,1.57,1,.07.1-.01.37-.1.52-.26.45-.57.87-.85,1.31Z" style="fill: #fff; stroke-width: 0px;"/>
    <path d="M53.42,39.48c-1.73.37-3,1.35-3.92,2.9.41-1.8,1.79-3.59,3.92-2.9Z" style="fill: #fff; stroke-width: 0px;"/>
    <path d="M40.28,57.3c.66-1.01,2.07-1.38,3.06-.8-1.01.32-2.01.63-3.01.95-.02-.05-.03-.1-.05-.15Z" style="fill: #fff; stroke-width: 0px;"/>
    <path d="M36.5,42.54c.06-.05.19-.25.33-.26.44-.04,1.21.43,1.11.57-.21.26-.53.46-.84.57-.26.09-.57-.35-.59-.88Z" style="fill: #fff; stroke-width: 0px;"/>
    <path d="M36.9,43.86c.47-.2.89-.38,1.31-.56.2.52.02.87-.52,1.11-.59.26-.6-.23-.78-.55Z" style="fill: #fff; stroke-width: 0px;"/>
    <path d="M51.9,49.19c.07-.17.1-.4.23-.51.62-.54,1.27-1.06,1.83-1.52-.42.78-1.12,1.48-1.91,2.09-.05-.02-.1-.05-.15-.07Z" style="fill: #fff; stroke-width: 0px;"/>
    <path d="M36.52,41.82c.92-.27,1.66.15,2.39.61-.8-.2-1.59-.41-2.39-.61Z" style="fill: #fff; stroke-width: 0px;"/>
  </g>
  <text transform="translate(89.96 78.09)" style="fill: #000; font-size: 63.64px;"><tspan x="0" y="0" style="font-family: MyriadPro-Regular, &apos;Myriad Pro&apos;; letter-spacing: .14em;">P</tspan><tspan x="42.89" y="0" style="font-family: MyriadPro-Regular, &apos;Myriad Pro&apos;; letter-spacing: .14em;">R</tspan><tspan x="86.35" y="0" style="font-family: MyriadPro-Regular, &apos;Myriad Pro&apos;; letter-spacing: .14em;">OJE</tspan><tspan x="212.16" y="0" style="font-family: MyriadPro-Regular, &apos;Myriad Pro&apos;; letter-spacing: .17em;">C</tspan><tspan x="259.89" y="0" style="font-family: MyriadPro-Regular, &apos;Myriad Pro&apos;; letter-spacing: .14em;">T</tspan><tspan x="300.55" y="0" style="font-family: MyriadPro-Regular, &apos;Myriad Pro&apos;; letter-spacing: .08em;"> </tspan><tspan x="318.82" y="0" style="font-family: FONTSPRINGDEMO-Izmir-BlackRegular, &apos;FONTSPRING DEMO - Izmir-Black&apos;; letter-spacing: .07em;">UNI</tspan><tspan x="444.24" y="0" style="font-family: FONTSPRINGDEMO-Izmir-BlackRegular, &apos;FONTSPRING DEMO - Izmir-Black&apos;; letter-spacing: .09em;">T</tspan><tspan x="485.99" y="0" style="font-family: FONTSPRINGDEMO-Izmir-BlackRegular, &apos;FONTSPRING DEMO - Izmir-Black&apos;; letter-spacing: .08em;">Y</tspan></text>
</svg>